<svg xmlns="http://www.w3.org/2000/svg" width="24" height="24" viewBox="0 0 24 24" fill="currentColor"><path d="M19.335 11.326c-1.346 0-2.31-1.078-2.31-2.322c0-1.25.965-2.328 2.31-2.328c1.345 0 2.309 1.078 2.309 2.328c0 1.244-.964 2.322-2.309 2.322m-5.464 2.654c.66.994 1.485 2.45 2.502 2.45c1.017 0 1.309-.643.51-2.618c-.798-1.975-2.228-3.74-3.83-3.74c-1.602 0-2.824 1.25-3.684 1.25c-.86 0-1.87-.994-3.03-.994c-1.16 0-2.246 1.01-2.246 3.257c0 2.246 1.144 4.805 2.326 4.805c1.182 0 1.838-.994 2.923-.994c1.085 0 1.633.994 3.03.994c1.398 0 2.21-1.266 2.21-1.266s-.606-1.522-1.21-2.585"/></svg>