<svg xmlns="http://www.w3.org/2000/svg" width="24" height="24" viewBox="0 0 24 24" fill="currentColor"><path d="M12.44.02C6.18-.54.43 4.22.99 10.48c.08.9.32 1.76.69 2.57C.88 12.83 0 11.96 0 11.02C0 4.93 4.93 0 11.02 0c.48 0 .94.03 1.42.02M23.01 11.96c-.56-6.26-5.32-11.01-11.58-10.45c-.08.9-.32 1.76-.69 2.57c.8.82 1.67 1.43 2.57 1.85c6.09.57 10.84 5.32 10.28 11.58c0 .94-.88 1.81-1.68 1.93c.9-.19 1.56-1.06 1.1-2.48m-4.04 7.21c-3.13 1.85-6.9 1.85-10.03 0c-4.3-2.55-6.06-7.53-3.5-11.83C7.96 3.22 12.94 1.46 17.24 4c2.55 1.51 3.93 4.2 3.73 7.02c-.17 2.45-1.5 4.67-3.73 6.15"/></svg>